<svg width="4306" height="1035" viewBox="0 0 4306 1035" fill="none" xmlns="http://www.w3.org/2000/svg">
<path d="M495.246 258.663C288.198 212.814 179.539 159.544 2.94078 0.887939C-22.0927 207.664 142.937 273.499 395.116 411.659C252.341 382.252 172.562 346.963 30.7546 247.536C46.6716 347.141 122.312 444.437 283.859 519.219C404.303 560.739 467.956 600.26 495.246 692.615C491.234 741.978 476.973 761.771 447.962 794.612L466.505 692.615C392.967 791.861 312.456 874.859 153.135 1033.84C339.336 966.839 434.591 918.41 587.031 811.302C794.708 629.562 740.934 379.205 495.246 258.663Z" fill="#800020"/>
<path d="M841.99 195.61C778.018 195.61 703.421 245.311 645.439 315.225C727.571 402.7 751.514 450.329 761.33 533.128C753.673 666.875 715.048 726.878 624.115 824.284C739.49 760.352 794.91 714.151 850.334 583.199C877.504 442.938 896.334 371.933 976.424 343.97C995.352 342.231 1052.49 337.648 1067.28 332.843C1031.12 262.372 917.087 203.955 841.99 195.61Z" fill="#800020"/>
<path d="M1067.28 332.843C1031.12 262.372 917.087 203.955 841.99 195.61C778.018 195.61 703.421 245.311 645.439 315.225C727.571 402.7 751.514 450.329 761.33 533.128C753.673 666.875 715.048 726.878 624.115 824.284C739.49 760.352 794.91 714.151 850.334 583.199C877.504 442.938 896.334 371.933 976.424 343.97C995.352 342.231 1052.49 337.648 1067.28 332.843ZM1067.28 332.843H1049.67M2.94078 0.887939C179.539 159.544 288.198 212.814 495.246 258.663C740.934 379.205 794.708 629.562 587.031 811.302C434.591 918.41 339.336 966.839 153.135 1033.84C312.456 874.859 392.967 791.861 466.505 692.615L447.962 794.612C476.973 761.771 491.234 741.978 495.246 692.615C467.956 600.26 404.303 560.739 283.859 519.219C122.312 444.437 46.6716 347.141 30.7546 247.536C172.562 346.963 252.341 382.252 395.116 411.659C142.937 273.499 -22.0927 207.664 2.94078 0.887939Z" stroke="black" stroke-width="0.875385"/>
<path d="M1699.7 349.83V429.103H1455.66L1617.11 829.615H1673.55V908.888H1435.73V829.615H1491.76L1466.45 766.53H1319.11L1293.79 829.615H1349.82V908.888H1142.72V829.615H1198.75L1361.03 429.103H1279.68V349.83H1699.7ZM1433.66 687.257L1392.99 585.157L1351.48 687.257H1433.66ZM2088.18 349.83V429.103H1693.89V349.83H2088.18ZM2040.86 623.756H1921.33V569.801C1921.33 553.753 1914.27 545.729 1900.16 545.729H1837.49C1822 545.729 1814.25 553.338 1814.25 568.556V607.57C1814.25 627.491 1824.21 639.666 1844.13 644.093L1970.3 672.731C2017.34 683.245 2040.86 711.468 2040.86 757.399V816.334C2040.86 878.037 2005.86 908.888 1935.86 908.888H1799.72C1766.52 908.888 1740.51 901.141 1721.7 885.646C1703.16 870.151 1693.89 848.984 1693.89 822.145V773.585H1814.25V825.88C1814.25 842.205 1821.31 850.367 1835.42 850.367H1897.67C1913.17 850.367 1920.91 842.758 1920.91 827.54V796.412C1920.91 771.51 1911.37 756.845 1892.28 752.418L1757.8 721.705C1715.19 712.021 1693.89 684.49 1693.89 639.113V580.592C1693.89 552.369 1702.19 530.096 1718.79 513.771C1736.5 496.616 1761.82 488.038 1794.74 488.038H1935.86C1968.23 488.038 1993.82 495.647 2012.64 510.865C2031.45 526.084 2040.86 547.112 2040.86 573.951V623.756ZM2476.65 349.83V429.103H2082.37V349.83H2476.65ZM2429.34 623.756H2309.81V569.801C2309.81 553.753 2302.75 545.729 2288.64 545.729H2225.97C2210.47 545.729 2202.73 553.338 2202.73 568.556V607.57C2202.73 627.491 2212.69 639.666 2232.61 644.093L2358.78 672.731C2405.82 683.245 2429.34 711.468 2429.34 757.399V816.334C2429.34 878.037 2394.34 908.888 2324.33 908.888H2188.2C2155 908.888 2128.99 901.141 2110.17 885.646C2091.63 870.151 2082.37 848.984 2082.37 822.145V773.585H2202.73V825.88C2202.73 842.205 2209.78 850.367 2223.89 850.367H2286.15C2301.64 850.367 2309.39 842.758 2309.39 827.54V796.412C2309.39 771.51 2299.85 756.845 2280.75 752.418L2146.28 721.705C2103.67 712.021 2082.37 684.49 2082.37 639.113V580.592C2082.37 552.369 2090.67 530.096 2107.27 513.771C2124.98 496.616 2150.29 488.038 2183.22 488.038H2324.33C2356.71 488.038 2382.3 495.647 2401.12 510.865C2419.93 526.084 2429.34 547.112 2429.34 573.951V623.756ZM2865.13 349.83V429.103H2470.84V349.83H2865.13ZM2818.23 626.246H2697.87V570.631C2697.87 554.306 2691.23 546.144 2677.95 546.144L2612.79 546.559C2598.4 546.559 2591.2 554.86 2591.2 571.461V828.37C2591.2 843.588 2598.95 851.198 2614.45 851.198H2676.29C2690.67 851.198 2697.87 843.312 2697.87 827.54V771.095H2818.23V822.975C2818.23 849.537 2808.82 870.566 2790.01 886.061C2771.19 901.279 2745.46 908.888 2712.81 908.888H2571.28C2538.35 908.888 2513.18 900.172 2495.74 882.74C2479.14 866.692 2470.84 844.557 2470.84 816.334V574.781C2470.84 545.729 2481.63 523.455 2503.21 507.96C2521.75 494.679 2545.27 488.038 2573.77 488.038H2717.79C2784.75 488.038 2818.23 518.89 2818.23 580.592V626.246ZM3275.19 349.83V429.103H3055.22V349.83H3275.19ZM3222.06 908.888H3100.46V580.592C3100.46 575.058 3100.04 571.6 3099.21 570.216C3098.38 568.556 3096.58 567.726 3093.82 567.726C3086.07 567.726 3071.68 576.718 3050.65 594.703C3035.43 607.708 3023.67 621.128 3015.37 634.962V829.615H3053.97V908.888H2859.32V829.615H2899.16V429.103H2859.32V349.83H3015.37V547.804C3027.55 534.799 3044.98 522.21 3067.67 510.035C3095.89 495.094 3121.9 487.623 3145.7 487.623C3169.21 487.623 3187.75 493.987 3201.31 506.715C3215.15 519.166 3222.06 535.906 3222.06 556.935V908.888ZM3666.98 349.83V429.103H3269.38V349.83H3666.98ZM3616.76 580.592V822.975C3616.76 849.537 3607.22 870.566 3588.13 886.061C3569.04 901.279 3543.44 908.888 3511.34 908.888H3369.82C3336.89 908.888 3311.71 900.172 3294.28 882.74C3277.68 866.692 3269.38 844.557 3269.38 816.334V574.781C3269.38 545.729 3280.17 523.455 3301.75 507.96C3320.29 494.679 3343.81 488.038 3372.31 488.038H3516.33C3583.28 488.038 3616.76 518.89 3616.76 580.592ZM3496.4 827.54V570.631C3496.4 554.306 3489.76 546.144 3476.48 546.144L3411.32 546.559C3396.93 546.559 3389.74 554.86 3389.74 571.461V828.37C3389.74 843.588 3397.49 851.198 3412.98 851.198H3474.82C3489.21 851.198 3496.4 843.312 3496.4 827.54ZM4058.78 349.83V429.103H3661.17V349.83H4058.78ZM4008.56 580.592V822.975C4008.56 849.537 3999.02 870.566 3979.92 886.061C3960.83 901.279 3935.24 908.888 3903.14 908.888H3761.61C3728.69 908.888 3703.51 900.172 3686.08 882.74C3669.47 866.692 3661.17 844.557 3661.17 816.334V574.781C3661.17 545.729 3671.96 523.455 3693.55 507.96C3712.09 494.679 3735.6 488.038 3764.1 488.038H3908.12C3975.08 488.038 4008.56 518.89 4008.56 580.592ZM3888.2 827.54V570.631C3888.2 554.306 3881.56 546.144 3868.28 546.144L3803.12 546.559C3788.73 546.559 3781.54 554.86 3781.54 571.461V828.37C3781.54 843.588 3789.28 851.198 3804.78 851.198H3866.62C3881.01 851.198 3888.2 843.312 3888.2 827.54ZM4251.36 908.888H4052.97V829.615H4092.81V429.103H4052.97V349.83H4212.76L4212.35 829.615H4251.36V908.888Z" fill="#800020"/>
</svg>
